<svg width="61" height="29" viewBox="0 0 61 29" fill="none" xmlns="http://www.w3.org/2000/svg">
<path d="M13.088 27.3042C13.0667 27.1134 13.0885 26.92 13.152 26.7388C13.2155 26.5576 13.3194 26.3931 13.4552 26.2573C13.591 26.1216 13.7554 26.018 13.9367 25.9546C14.1179 25.8912 14.3113 25.8697 14.5021 25.8911C14.6931 25.868 14.8871 25.8888 15.069 25.9517C15.2509 26.0145 15.4159 26.1178 15.5519 26.2539C15.6879 26.3901 15.7914 26.5554 15.8541 26.7373C15.9169 26.9193 15.9374 27.1132 15.9142 27.3042C15.9394 27.4957 15.9201 27.6902 15.858 27.8731C15.796 28.056 15.6928 28.2222 15.5563 28.3589C15.4198 28.4956 15.2538 28.5989 15.0709 28.6612C14.8881 28.7234 14.6936 28.7432 14.5021 28.7183C14.3108 28.7415 14.1168 28.7206 13.9347 28.6577C13.7526 28.5949 13.5871 28.4917 13.4508 28.3555C13.3146 28.2192 13.2109 28.0537 13.1481 27.8716C13.0852 27.6895 13.0648 27.4955 13.088 27.3042ZM9.37904 27.3042C9.35564 27.1132 9.376 26.9193 9.43861 26.7373C9.50121 26.5554 9.6044 26.3901 9.74037 26.2539C9.87633 26.1178 10.0414 26.0141 10.2233 25.9512C10.4051 25.8883 10.5991 25.868 10.7902 25.8911C10.9814 25.8677 11.1754 25.888 11.3576 25.9507C11.5397 26.0134 11.7052 26.1168 11.8414 26.253C11.9777 26.3891 12.0808 26.5547 12.1437 26.7368C12.2065 26.9189 12.2275 27.113 12.2042 27.3042C12.2293 27.4959 12.2098 27.6906 12.1476 27.8736C12.0854 28.0565 11.982 28.2227 11.8453 28.3594C11.7087 28.4961 11.5425 28.5995 11.3595 28.6616C11.1765 28.7238 10.9818 28.7434 10.7902 28.7183C10.5987 28.7433 10.4041 28.7234 10.2213 28.6612C10.0385 28.5989 9.87237 28.4956 9.73597 28.3589C9.59957 28.2222 9.49658 28.056 9.4347 27.8731C9.37282 27.6902 9.35364 27.4956 9.37904 27.3042ZM2.54603 15.981V14.125L1.72425 14.083C1.02425 14.041 0.858041 13.6833 0.858041 13.2603V12.354C0.844866 12.2381 0.858389 12.1207 0.897592 12.0108C0.936795 11.9008 1.00054 11.8012 1.08412 11.7198C1.1677 11.6383 1.26911 11.5769 1.38001 11.5406C1.49091 11.5042 1.60867 11.4941 1.72425 11.5103L4.88587 11.5313C5.00186 11.5178 5.11956 11.5308 5.22962 11.5698C5.33969 11.6089 5.43953 11.6724 5.52113 11.7559C5.60273 11.8394 5.66391 11.9408 5.70033 12.0518C5.73674 12.1627 5.74731 12.2804 5.73109 12.396V15.981C5.73109 18.659 6.84914 20.981 12.4371 20.981C17.8961 20.981 18.8898 19.9882 18.8898 18.5332C18.8898 14.9062 10.6442 17.3333 10.6442 11.4483C10.6442 8.62327 12.8581 6.95608 16.1681 6.95608C18.0148 6.85459 19.8537 7.26401 21.483 8.13918C21.946 8.41218 22.1359 8.64392 22.1359 9.04592V10.5C22.1359 10.965 21.8841 11.1319 21.5021 10.9219C19.871 9.97163 18.0148 9.47633 16.1271 9.48782C15.8426 9.45452 15.5544 9.48062 15.2804 9.56399C15.0064 9.64736 14.7525 9.78659 14.5348 9.97268C14.3171 10.1588 14.1398 10.3878 14.0148 10.6455C13.8897 10.9032 13.8197 11.184 13.8082 11.4702C13.8082 14.5072 22.0538 13.2409 22.0538 18.0489C22.0538 21.8229 19.5031 23.7432 12.4391 23.7432C4.7181 23.7412 2.54603 20.328 2.54603 15.981ZM23.546 23.5078C23.343 23.4666 23.1632 23.3503 23.0421 23.1822C22.9211 23.014 22.8679 22.8067 22.8932 22.6011V21.273C22.8932 20.851 23.125 20.8311 23.546 20.8731C25.946 21.2321 26.5831 19.861 26.5831 17.604L26.5631 10.1822V9.59085L25.591 9.49124C24.876 9.38524 24.7072 9.091 24.7072 8.647V7.76028C24.7072 7.19228 25.021 6.91799 25.591 6.91799H28.944C29.0594 6.90166 29.1769 6.91208 29.2877 6.94827C29.3985 6.98445 29.4996 7.04568 29.5831 7.12698C29.6667 7.20827 29.7305 7.30724 29.7697 7.41702C29.8088 7.52679 29.8224 7.64448 29.8092 7.76028V18.0298C29.8092 22.0658 27.3281 23.607 24.6901 23.607C24.3074 23.6044 23.9254 23.5712 23.548 23.5078H23.546ZM51.6569 15.981C51.2126 16.4825 50.6674 16.8844 50.0568 17.1602C49.4461 17.4359 48.7839 17.5794 48.1139 17.5811H47.9459C47.225 17.6114 46.5059 17.4876 45.8366 17.2183C45.1672 16.949 44.5631 16.5402 44.0641 16.0191C43.1391 17.0521 41.5989 17.5811 39.4459 17.5811C33.9639 17.5811 32.5089 15.3239 32.5089 9.86086V2.90286L31.5182 2.80325C30.8012 2.70325 30.632 2.40301 30.632 1.95901V1.07424C30.6192 0.956537 30.6338 0.837304 30.6744 0.726099C30.7151 0.614893 30.7807 0.514357 30.8663 0.432642C30.952 0.350926 31.0556 0.29024 31.1686 0.254907C31.2816 0.219574 31.4012 0.210675 31.5182 0.229028H34.8922C35.0066 0.214941 35.1226 0.227189 35.2316 0.264673C35.3405 0.302157 35.4392 0.363875 35.5206 0.445337C35.6021 0.526798 35.6638 0.625952 35.7013 0.734888C35.7388 0.843823 35.751 0.959904 35.7369 1.07424V10.2671C35.7369 13.5371 36.3269 14.8443 39.4259 14.8443C39.7652 14.8757 40.1074 14.8303 40.4269 14.7119C40.7464 14.5935 41.0348 14.4051 41.2716 14.1602C41.5084 13.9152 41.6875 13.6202 41.7951 13.2969C41.9026 12.9736 41.9361 12.63 41.8932 12.292V9.59182L41.07 9.49221C40.375 9.38621 40.2072 9.09197 40.2072 8.64797V7.76321C40.1918 7.64707 40.2036 7.52873 40.2418 7.41799C40.2801 7.30726 40.3436 7.20694 40.4274 7.12502C40.5111 7.04311 40.6127 6.98208 40.7243 6.94631C40.8358 6.91055 40.9542 6.90102 41.07 6.91897H44.275C44.3907 6.90261 44.5083 6.91295 44.6193 6.94924C44.7303 6.98553 44.8315 7.04694 44.9152 7.12844C44.9988 7.20995 45.0626 7.30944 45.1017 7.41946C45.1408 7.52948 45.1546 7.6472 45.1412 7.76321V12.063C45.1412 13.918 45.8791 14.9731 47.5411 15.0161C48.5531 14.9951 49.4811 14.4029 49.4811 12.3159L49.4601 11.1548V8.96389C49.4501 8.84885 49.4659 8.73331 49.506 8.62502C49.5461 8.51674 49.6095 8.4187 49.692 8.33792C49.7745 8.25713 49.8739 8.19556 49.983 8.15774C50.0921 8.11992 50.2081 8.10677 50.3229 8.11916H51.8639C51.9777 8.10713 52.093 8.12046 52.2008 8.15872C52.3086 8.19697 52.4062 8.25931 52.4869 8.34036C52.5677 8.42141 52.6297 8.5195 52.6676 8.62747C52.7055 8.73544 52.7186 8.85015 52.7062 8.96389V12.0401L52.7272 12.062C52.7272 13.962 53.5719 15.0152 55.3429 15.0152C56.6519 15.0152 57.7428 14.255 57.7428 12.062V9.59426L56.923 9.49417C56.205 9.38817 56.0348 9.09393 56.0348 8.64993V7.76516C56.0348 7.19516 56.35 6.92092 56.923 6.92092H60.1232C60.2383 6.9065 60.355 6.91858 60.465 6.95559C60.575 6.9926 60.6754 7.05368 60.7584 7.13479C60.8415 7.2159 60.9049 7.31474 60.9445 7.42385C60.984 7.53297 60.9987 7.64969 60.9869 7.76516V12.3828C61.0339 13.0735 60.9336 13.7666 60.6925 14.4156C60.4515 15.0645 60.0755 15.6549 59.589 16.1475C59.1025 16.64 58.5167 17.0234 57.8707 17.2725C57.2248 17.5215 56.5332 17.6303 55.8419 17.5918C55.0691 17.6481 54.2936 17.5329 53.5704 17.2544C52.8473 16.9759 52.1943 16.5411 51.6588 15.981H51.6569Z" fill="url(#paint0_linear_0_145)"/>
<defs>
<linearGradient id="paint0_linear_0_145" x1="105.987" y1="-23.9275" x2="71.8991" y2="45.4128" gradientUnits="userSpaceOnUse">
<stop stop-color="#FEDD02"/>
<stop offset="1" stop-color="#28D8B7"/>
</linearGradient>
</defs>
</svg>
