<svg width="11" height="7" viewBox="0 0 11 7" fill="none" xmlns="http://www.w3.org/2000/svg">
<path d="M5.108 4.74001L1.244 0.881008C1.10728 0.744288 0.92185 0.66748 0.7285 0.66748C0.632763 0.66748 0.537963 0.686337 0.449513 0.722974C0.361064 0.759611 0.280697 0.813311 0.213 0.881008C0.145304 0.948704 0.0916042 1.02907 0.0549669 1.11752C0.0183296 1.20597 -0.000527382 1.30077 -0.000527382 1.39651C-0.000527382 1.58986 0.0762815 1.77529 0.213 1.91201L4.588 6.28701C4.65569 6.35471 4.73606 6.40841 4.82451 6.44505C4.91296 6.48169 5.00776 6.50055 5.1035 6.50055C5.19924 6.50055 5.29404 6.48169 5.38249 6.44505C5.47094 6.40841 5.55131 6.35471 5.619 6.28701L9.994 1.91201C10.1307 1.77529 10.2075 1.58986 10.2075 1.39651C10.2075 1.20316 10.1307 1.01773 9.994 0.881008C9.85728 0.744288 9.67185 0.66748 9.4785 0.66748C9.28515 0.66748 9.09972 0.744288 8.963 0.881008L5.108 4.74001Z" fill="#404040"/>
</svg>
