<svg width="21" height="24" viewBox="0 0 21 24" fill="none" xmlns="http://www.w3.org/2000/svg">
<path d="M5.99995 23.999C4.40922 23.9972 2.88417 23.3644 1.75936 22.2396C0.634541 21.1148 0.00180493 19.5898 -4.76837e-05 17.999L-4.76837e-05 5.99902C0.00180493 4.40829 0.634541 2.88325 1.75936 1.75843C2.88417 0.633612 4.40922 0.000876049 5.99995 -0.000976562L15 -0.000976562C16.5907 0.000876049 18.1157 0.633612 19.2405 1.75843C20.3654 2.88325 20.9981 4.40829 21 5.99902V17.999C20.9981 19.5898 20.3654 21.1148 19.2405 22.2396C18.1157 23.3644 16.5907 23.9972 15 23.999H5.99995ZM1.49995 5.99902V17.999C1.50128 19.1921 1.97581 20.3359 2.81943 21.1795C3.66306 22.0232 4.80688 22.4977 5.99995 22.499H15C16.193 22.4977 17.3368 22.0232 18.1805 21.1795C19.0241 20.3359 19.4986 19.1921 19.5 17.999V5.99902C19.4986 4.80596 19.0241 3.66213 18.1805 2.8185C17.3368 1.97488 16.193 1.50035 15 1.49902H5.99995C4.80688 1.50035 3.66306 1.97488 2.81943 2.8185C1.97581 3.66213 1.50128 4.80596 1.49995 5.99902ZM12.567 17.066C12.567 16.6507 12.6901 16.2447 12.9209 15.8993C13.1516 15.554 13.4796 15.2848 13.8633 15.1259C14.247 14.9669 14.6693 14.9253 15.0766 15.0064C15.484 15.0874 15.8582 15.2874 16.1519 15.5811C16.4456 15.8748 16.6456 16.249 16.7266 16.6563C16.8076 17.0637 16.766 17.4859 16.6071 17.8697C16.4482 18.2534 16.179 18.5814 15.8336 18.8121C15.4883 19.0429 15.0823 19.166 14.667 19.166C14.11 19.166 13.5759 18.9448 13.182 18.5509C12.7882 18.1571 12.567 17.623 12.567 17.066ZM13.967 17.066C13.967 17.2045 14.008 17.3398 14.0849 17.4549C14.1618 17.57 14.2712 17.6598 14.3991 17.7127C14.527 17.7657 14.6677 17.7796 14.8035 17.7526C14.9393 17.7256 15.064 17.6589 15.1619 17.561C15.2598 17.4631 15.3265 17.3384 15.3535 17.2026C15.3805 17.0668 15.3666 16.9261 15.3137 16.7981C15.2607 16.6702 15.171 16.5609 15.0559 16.484C14.9407 16.4071 14.8054 16.366 14.667 16.366C14.4813 16.366 14.3033 16.4398 14.172 16.571C14.0407 16.7023 13.967 16.8804 13.967 17.066ZM6.14995 17.766C5.9643 17.766 5.78625 17.6923 5.65498 17.561C5.5237 17.4297 5.44995 17.2517 5.44995 17.066C5.44995 16.8804 5.5237 16.7023 5.65498 16.571C5.78625 16.4398 5.9643 16.366 6.14995 16.366H10.04C10.2256 16.366 10.4037 16.4398 10.5349 16.571C10.6662 16.7023 10.74 16.8804 10.74 17.066C10.74 17.2517 10.6662 17.4297 10.5349 17.561C10.4037 17.6923 10.2256 17.766 10.04 17.766H6.14995ZM12.567 11.699C12.567 11.2837 12.6901 10.8777 12.9209 10.5323C13.1516 10.187 13.4796 9.91782 13.8633 9.75888C14.247 9.59993 14.6693 9.55835 15.0766 9.63937C15.484 9.7204 15.8582 9.92041 16.1519 10.2141C16.4456 10.5078 16.6456 10.882 16.7266 11.2893C16.8076 11.6967 16.766 12.1189 16.6071 12.5027C16.4482 12.8864 16.179 13.2144 15.8336 13.4451C15.4883 13.6759 15.0823 13.799 14.667 13.799C14.11 13.799 13.5759 13.5778 13.182 13.1839C12.7882 12.7901 12.567 12.256 12.567 11.699ZM13.967 11.699C13.967 11.8375 14.008 11.9728 14.0849 12.0879C14.1618 12.203 14.2712 12.2928 14.3991 12.3457C14.527 12.3987 14.6677 12.4126 14.8035 12.3856C14.9393 12.3586 15.064 12.2919 15.1619 12.194C15.2598 12.0961 15.3265 11.9714 15.3535 11.8356C15.3805 11.6998 15.3666 11.5591 15.3137 11.4311C15.2607 11.3032 15.171 11.1939 15.0559 11.117C14.9407 11.0401 14.8054 10.999 14.667 10.999C14.4813 10.999 14.3033 11.0728 14.172 11.204C14.0407 11.3353 13.967 11.5134 13.967 11.699ZM7.15495 12.399C7.06303 12.399 6.972 12.3809 6.88707 12.3457C6.80215 12.3106 6.72498 12.259 6.65998 12.194C6.59498 12.129 6.54341 12.0518 6.50824 11.9669C6.47306 11.882 6.45495 11.7909 6.45495 11.699C6.45495 11.6071 6.47306 11.5161 6.50824 11.4311C6.54341 11.3462 6.59498 11.2691 6.65998 11.204C6.72498 11.139 6.80215 11.0875 6.88707 11.0523C6.972 11.0171 7.06303 10.999 7.15495 10.999H10.048C10.2336 10.999 10.4117 11.0728 10.5429 11.204C10.6742 11.3353 10.748 11.5134 10.748 11.699C10.748 11.8847 10.6742 12.0627 10.5429 12.194C10.4117 12.3253 10.2336 12.399 10.048 12.399H7.15495ZM12.567 6.09902C12.567 5.68368 12.6901 5.27767 12.9209 4.93233C13.1516 4.58698 13.4796 4.31782 13.8633 4.15888C14.247 3.99993 14.6693 3.95835 15.0766 4.03937C15.484 4.1204 15.8582 4.32041 16.1519 4.6141C16.4456 4.90779 16.6456 5.28197 16.7266 5.68933C16.8076 6.09669 16.766 6.51893 16.6071 6.90266C16.4482 7.28638 16.179 7.61436 15.8336 7.84511C15.4883 8.07586 15.0823 8.19902 14.667 8.19902C14.11 8.19902 13.5759 7.97777 13.182 7.58395C12.7882 7.19012 12.567 6.65598 12.567 6.09902ZM13.967 6.09902C13.967 6.23747 14.008 6.37281 14.0849 6.48792C14.1618 6.60304 14.2712 6.69276 14.3991 6.74574C14.527 6.79872 14.6677 6.81258 14.8035 6.78557C14.9393 6.75856 15.064 6.69189 15.1619 6.594C15.2598 6.4961 15.3265 6.37137 15.3535 6.23559C15.3805 6.0998 15.3666 5.95905 15.3137 5.83114C15.2607 5.70324 15.171 5.59391 15.0559 5.51699C14.9407 5.44008 14.8054 5.39902 14.667 5.39902C14.4813 5.39902 14.3033 5.47277 14.172 5.60405C14.0407 5.73532 13.967 5.91337 13.967 6.09902ZM3.69995 6.79902C3.5143 6.79902 3.33625 6.72527 3.20498 6.594C3.0737 6.46272 2.99995 6.28467 2.99995 6.09902C2.99995 5.91337 3.0737 5.73532 3.20498 5.60405C3.33625 5.47277 3.5143 5.39902 3.69995 5.39902H10.03C10.2156 5.39902 10.3937 5.47277 10.5249 5.60405C10.6562 5.73532 10.73 5.91337 10.73 6.09902C10.73 6.28467 10.6562 6.46272 10.5249 6.594C10.3937 6.72527 10.2156 6.79902 10.03 6.79902H3.69995Z" fill="#404040"/>
</svg>
