<svg width="22" height="25" viewBox="0 0 22 25" fill="none" xmlns="http://www.w3.org/2000/svg">
<path d="M2.45195 24.5071C1.80755 24.5127 1.18729 24.2622 0.727502 23.8106C0.267715 23.3591 0.00602696 22.7435 -4.57764e-05 22.0991C0.0501994 20.6567 0.569057 19.2701 1.47795 18.1491C2.36976 17.0092 3.54094 16.1191 4.87795 15.5651C6.81986 14.7849 8.90091 14.4106 10.993 14.4651C13.0853 14.4106 15.1667 14.785 17.109 15.5651C18.445 16.1208 19.6158 17.0106 20.509 18.1491C21.4161 19.2707 21.9331 20.6573 21.982 22.0991C21.9738 22.7421 21.7112 23.3556 21.2516 23.8055C20.792 24.2553 20.173 24.5047 19.53 24.4991L2.45195 24.5071ZM5.56595 17.0901C4.49527 17.5314 3.55616 18.2408 2.83895 19.1501C2.37378 19.7552 2.03568 20.448 1.84495 21.1871C1.75995 21.4841 1.71126 21.7903 1.69995 22.0991C1.70233 22.2959 1.78259 22.4837 1.92315 22.6215C2.06372 22.7592 2.25315 22.8357 2.44995 22.8341H19.53C19.7268 22.8357 19.9162 22.7592 20.0568 22.6215C20.1973 22.4837 20.2776 22.2959 20.28 22.0991C20.2692 21.7891 20.2212 21.4816 20.137 21.1831C19.9467 20.4438 19.6086 19.7509 19.143 19.1461C18.4253 18.237 17.4864 17.5273 16.416 17.0851C14.6915 16.4019 12.846 16.0773 10.992 16.1311C9.13688 16.0782 7.29054 16.4046 5.56595 17.0901ZM4.26595 7.59006C4.28522 5.82473 5.0042 4.13917 6.26505 2.90344C7.52591 1.66771 9.22559 0.982797 10.991 0.999063C12.7555 0.983861 14.454 1.66911 15.7139 2.90451C16.9739 4.13991 17.6924 5.8246 17.712 7.58906C17.6924 9.35353 16.9739 11.0382 15.7139 12.2736C14.454 13.509 12.7555 14.1943 10.991 14.1791C9.22645 14.1943 7.52795 13.509 6.26799 12.2736C5.00803 11.0382 4.28948 9.35353 4.26995 7.58906L4.26595 7.59006ZM5.96595 7.59006C5.99798 8.90007 6.54088 10.1457 7.47873 11.0609C8.41658 11.976 9.67505 12.4883 10.9855 12.4883C12.2959 12.4883 13.5543 11.976 14.4922 11.0609C15.43 10.1457 15.9729 8.90007 16.005 7.59006C15.9729 6.28005 15.43 5.03447 14.4922 4.11927C13.5543 3.20408 12.2959 2.69178 10.9855 2.69178C9.67505 2.69178 8.41658 3.20408 7.47873 4.11927C6.54088 5.03447 5.99798 6.28005 5.96595 7.59006Z" fill="#404040"/>
</svg>
