<svg width="17" height="15" viewBox="0 0 17 15" fill="none" xmlns="http://www.w3.org/2000/svg">
<path d="M0.291992 7.31597C0.313897 9.27389 1.11089 11.1433 2.5084 12.5148C3.90591 13.8862 5.79001 14.6479 7.74799 14.633C8.78465 14.6355 9.81058 14.4231 10.761 14.0091C11.7115 13.5952 12.5658 12.9887 13.27 12.228L13.286 12.243L16.179 14.873C16.272 14.9549 16.3916 15.0001 16.5155 15.0001C16.6394 15.0001 16.759 14.9549 16.852 14.873C16.8964 14.8354 16.9321 14.7886 16.9566 14.7359C16.9811 14.6831 16.9938 14.6256 16.9938 14.5675C16.9938 14.5093 16.9811 14.4518 16.9566 14.3991C16.9321 14.3463 16.8964 14.2995 16.852 14.262L13.959 11.632C13.9203 11.5966 13.876 11.5679 13.828 11.547C14.7228 10.3177 15.2045 8.83637 15.204 7.31597C15.1818 5.35823 14.3847 3.48905 12.9872 2.11781C11.5898 0.746571 9.70581 -0.0149702 7.74799 -2.83485e-05C5.79018 -0.0149702 3.90623 0.746571 2.50875 2.11781C1.11127 3.48905 0.31416 5.35823 0.291992 7.31597ZM7.74799 0.828972C9.48421 0.814838 11.1552 1.4898 12.3945 2.70586C13.6338 3.92191 14.3403 5.5798 14.359 7.31597C14.3395 9.05162 13.6326 10.7087 12.3934 11.9241C11.1542 13.1396 9.4837 13.8141 7.74799 13.8C6.01246 13.8138 4.3422 13.1392 3.10321 11.9238C1.86421 10.7084 1.15752 9.05145 1.13799 7.31597C1.15673 5.57997 1.86307 3.92224 3.10216 2.70621C4.34124 1.49019 6.01195 0.815104 7.74799 0.828972ZM6.24799 3.56197C5.51158 3.98198 4.89857 4.58827 4.47048 5.32002C4.04239 6.05176 3.81426 6.88322 3.80899 7.73097C3.80899 7.84316 3.85356 7.95075 3.93289 8.03008C4.01221 8.10941 4.11981 8.15397 4.23199 8.15397C4.34418 8.15397 4.45177 8.10941 4.5311 8.03008C4.61043 7.95075 4.65499 7.84316 4.65499 7.73097C4.65876 7.02894 4.84723 6.34027 5.20145 5.73415C5.55568 5.12804 6.06319 4.62582 6.67299 4.27797C6.72076 4.25114 6.76266 4.215 6.79623 4.1717C6.8298 4.12839 6.85434 4.0788 6.86842 4.02585C6.88249 3.9729 6.88582 3.91767 6.87819 3.86341C6.87055 3.80916 6.85213 3.75698 6.82399 3.70997C6.76586 3.61493 6.67296 3.54629 6.56503 3.51866C6.4571 3.49102 6.34265 3.50656 6.24599 3.56197H6.24799Z" fill="#5F5F5F"/>
</svg>
