<svg width="25" height="24" viewBox="0 0 25 24" fill="none" xmlns="http://www.w3.org/2000/svg">
<path d="M8.81893 23.999C7.0037 23.9972 5.26353 23.2744 3.98119 21.9896C2.69884 20.7048 1.97934 18.9633 1.98093 17.148V10.132C1.52353 9.29439 1.19389 8.3931 1.00293 7.45802C0.9713 7.31711 0.974044 7.17065 1.01093 7.03102L1.81093 4.03102C2.1015 2.89021 2.75996 1.87697 3.68443 1.1481C4.60889 0.41923 5.74781 0.0153719 6.92493 -0.000976562L19.0019 -0.000976562C20.2103 0.0112852 21.3787 0.433507 22.3158 1.19654C23.2529 1.95957 23.9031 3.01819 24.1599 4.19902L24.9599 7.59902C25.0056 7.79159 24.9859 7.99388 24.9039 8.17402C24.6228 8.80274 24.3007 9.41237 23.9399 9.99902H23.9809V17.148C23.9825 18.9633 23.263 20.7048 21.9807 21.9896C20.6983 23.2744 18.9582 23.9972 17.1429 23.999H8.81893ZM3.76493 17.148C3.76427 17.8124 3.89448 18.4704 4.14811 19.0844C4.40174 19.6984 4.77383 20.2565 5.24314 20.7267C5.71245 21.197 6.26978 21.5702 6.88332 21.825C7.49685 22.0799 8.15457 22.2114 8.81893 22.212H17.1429C18.4846 22.2104 19.7707 21.6761 20.7184 20.7264C21.6662 19.7768 22.198 18.4897 22.1969 17.148V11.928C21.7285 12.2447 21.1764 12.4149 20.6109 12.417C20.5109 12.417 20.4109 12.412 20.3109 12.402C19.2349 12.292 18.4889 11.831 16.9909 10.35C16.5722 10.9724 16.0144 11.4889 15.3616 11.8586C14.7089 12.2283 13.9791 12.441 13.2299 12.48C11.5871 12.3483 10.0565 11.5943 8.95093 10.372C7.84917 11.3609 6.45585 11.9649 4.98093 12.093C4.56357 12.096 4.15003 12.0133 3.76593 11.85L3.76493 17.148ZM9.60393 8.61402C10.9659 10.048 12.1409 10.744 13.1959 10.744C14.2509 10.744 15.2459 10.027 16.1959 8.55202C16.2706 8.43377 16.3739 8.3363 16.4962 8.26864C16.6186 8.20098 16.7561 8.16534 16.8959 8.16502C17.0058 8.16507 17.1145 8.18733 17.2156 8.23046C17.3166 8.27359 17.4079 8.33671 17.4839 8.41602L17.5839 8.51602C19.1539 10.116 19.8039 10.605 20.4839 10.674C20.5219 10.6774 20.5596 10.679 20.5969 10.679C21.4439 10.679 22.3159 9.70802 23.2609 7.71102L22.5339 4.61102C22.3584 3.80301 21.9136 3.07858 21.2724 2.55642C20.6312 2.03427 19.8318 1.74536 19.0049 1.73702H6.92493C6.11888 1.74798 5.33896 2.0246 4.70615 2.52398C4.07333 3.02337 3.62298 3.7176 3.42493 4.49902L2.68093 7.27602C3.18993 9.39102 3.94493 10.376 5.06093 10.376C5.91993 10.376 7.03493 9.77602 8.46893 8.55402C8.62867 8.41594 8.83566 8.34505 9.04652 8.35624C9.25737 8.36743 9.4557 8.45981 9.59993 8.61402H9.60393Z" fill="#404040"/>
</svg>
