<svg width="28" height="28" viewBox="0 0 28 28" fill="none" xmlns="http://www.w3.org/2000/svg">
<path d="M10.154 27.208C9.51636 27.208 8.89304 27.0189 8.36285 26.6647C7.83267 26.3104 7.41944 25.8069 7.17542 25.2178C6.9314 24.6287 6.86756 23.9804 6.99196 23.355C7.11636 22.7296 7.42341 22.1552 7.8743 21.7043C8.32518 21.2534 8.89964 20.9464 9.52504 20.822C10.1504 20.6976 10.7987 20.7614 11.3878 21.0054C11.9769 21.2494 12.4804 21.6627 12.8347 22.1929C13.1889 22.723 13.378 23.3464 13.378 23.984C13.377 24.8387 13.0369 25.6582 12.4326 26.2626C11.8282 26.8669 11.0087 27.207 10.154 27.208ZM10.179 22.694C9.92387 22.694 9.67446 22.7697 9.46232 22.9114C9.25018 23.0532 9.08484 23.2546 8.9872 23.4903C8.88957 23.7261 8.86402 23.9854 8.9138 24.2357C8.96357 24.4859 9.08643 24.7158 9.26684 24.8962C9.44725 25.0766 9.67711 25.1994 9.92734 25.2492C10.1776 25.299 10.437 25.2735 10.6727 25.1758C10.9084 25.0782 11.1099 24.9128 11.2516 24.7007C11.3934 24.4886 11.469 24.2391 11.469 23.984C11.4687 23.642 11.3327 23.314 11.0909 23.0721C10.849 22.8303 10.5211 22.6943 10.179 22.694Z" fill="#404040"/>
<path d="M20.785 27.208C20.1474 27.208 19.524 27.0189 18.9938 26.6647C18.4637 26.3104 18.0504 25.8069 17.8064 25.2178C17.5624 24.6287 17.4986 23.9804 17.623 23.355C17.7474 22.7296 18.0544 22.1552 18.5053 21.7043C18.9562 21.2534 19.5306 20.9464 20.156 20.822C20.7814 20.6976 21.4297 20.7614 22.0188 21.0054C22.6079 21.2494 23.1114 21.6627 23.4657 22.1929C23.8199 22.723 24.009 23.3464 24.009 23.984C24.0079 24.8387 23.6679 25.6582 23.0635 26.2626C22.4592 26.8669 21.6397 27.207 20.785 27.208ZM20.81 22.694C20.5549 22.694 20.3055 22.7697 20.0933 22.9114C19.8812 23.0532 19.7158 23.2546 19.6182 23.4903C19.5206 23.7261 19.495 23.9854 19.5448 24.2357C19.5946 24.4859 19.7174 24.7158 19.8978 24.8962C20.0782 25.0766 20.3081 25.1994 20.5583 25.2492C20.8086 25.299 21.068 25.2735 21.3037 25.1758C21.5394 25.0782 21.7409 24.9128 21.8826 24.7007C22.0243 24.4886 22.1 24.2391 22.1 23.984C22.0997 23.642 21.9637 23.314 21.7219 23.0721C21.48 22.8303 21.1521 22.6943 20.81 22.694Z" fill="#404040"/>
<path d="M3.57301 0.226993H0.967012C0.839958 0.226993 0.714148 0.252018 0.596766 0.300639C0.479383 0.349261 0.372727 0.420526 0.282886 0.510367C0.193045 0.600208 0.12178 0.706864 0.0731583 0.824247C0.0245368 0.941629 -0.000488281 1.06744 -0.000488281 1.19449C-0.000488281 1.32155 0.0245368 1.44736 0.0731583 1.56474C0.12178 1.68212 0.193045 1.78878 0.282886 1.87862C0.372727 1.96846 0.479383 2.03972 0.596766 2.08835C0.714148 2.13697 0.839958 2.16199 0.967012 2.16199H3.57301C3.95748 2.15653 4.33125 2.28867 4.62685 2.53458C4.92244 2.78048 5.12041 3.12395 5.18501 3.50299L7.44201 16.765C7.58303 17.5909 8.01184 18.3402 8.65247 18.8801C9.2931 19.4201 10.1042 19.7158 10.942 19.715H23.042C23.2986 19.715 23.5447 19.6131 23.7261 19.4316C23.9076 19.2502 24.0095 19.0041 24.0095 18.7475C24.0095 18.4909 23.9076 18.2448 23.7261 18.0634C23.5447 17.8819 23.2986 17.78 23.042 17.78H10.927C10.5463 17.7802 10.1778 17.6457 9.88679 17.4002C9.59577 17.1548 9.40101 16.8143 9.33701 16.439L9.21501 15.727H21.7C22.6146 15.7272 23.5041 15.4282 24.233 14.8757C24.9619 14.3233 25.49 13.5476 25.737 12.667L27.759 5.49299C27.7993 5.3492 27.8058 5.19802 27.7779 5.05131C27.75 4.9046 27.6885 4.76634 27.5982 4.64739C27.5079 4.52843 27.3913 4.432 27.2575 4.36565C27.1237 4.29931 26.9764 4.26486 26.827 4.26499H13.813C13.5564 4.26499 13.3103 4.36693 13.1289 4.54837C12.9474 4.72981 12.8455 4.9759 12.8455 5.23249C12.8455 5.48909 12.9474 5.73518 13.1289 5.91662C13.3103 6.09806 13.5564 6.19999 13.813 6.19999H25.537L23.87 12.144C23.7373 12.6176 23.4535 13.0349 23.0618 13.3324C22.6701 13.6299 22.1919 13.7913 21.7 13.792H8.88601L7.07401 3.17699C6.93297 2.35094 6.50401 1.60151 5.86317 1.06153C5.22234 0.521554 4.41101 0.225906 3.57301 0.226993Z" fill="#404040"/>
</svg>
